<?xml version="1.0" encoding="UTF-8"?>
<svg xmlns="http://www.w3.org/2000/svg" xmlns:xlink="http://www.w3.org/1999/xlink" width="30px" height="30px" viewBox="0 0 30 30" version="1.1">
<defs>
<filter id="alpha" filterUnits="objectBoundingBox" x="0%" y="0%" width="100%" height="100%">
  <feColorMatrix type="matrix" in="SourceGraphic" values="0 0 0 0 1 0 0 0 0 1 0 0 0 0 1 0 0 0 1 0"/>
</filter>
<mask id="mask0">
  <g filter="url(#alpha)">
<rect x="0" y="0" width="30" height="30" style="fill:rgb(0%,0%,0%);fill-opacity:0.4;stroke:none;"/>
  </g>
</mask>
<clipPath id="clip1">
  <rect x="0" y="0" width="30" height="30"/>
</clipPath>
<g id="surface5" clip-path="url(#clip1)">
<path style="fill:none;stroke-width:1.5;stroke-linecap:round;stroke-linejoin:round;stroke:rgb(7.45098%,5.882353%,14.901961%);stroke-opacity:1;stroke-miterlimit:4;" d="M 8.26875 14.953125 L 9.8625 9.8625 L 14.953125 8.26875 L 13.359375 13.359375 Z M 8.26875 14.953125 " transform="matrix(1.25,0,0,1.25,0,0)"/>
</g>
</defs>
<g id="surface1">
<use xlink:href="#surface5" mask="url(#mask0)"/>
<path style="fill:none;stroke-width:1.5;stroke-linecap:round;stroke-linejoin:round;stroke:rgb(7.45098%,5.882353%,14.901961%);stroke-opacity:1;stroke-miterlimit:4;" d="M 21.221875 11.6125 C 21.221875 16.91875 16.91875 21.221875 11.6125 21.221875 C 6.303125 21.221875 2 16.91875 2 11.6125 C 2 6.303125 6.303125 2 11.6125 2 C 16.91875 2 21.221875 6.303125 21.221875 11.6125 Z M 21.221875 11.6125 " transform="matrix(1.25,0,0,1.25,0,0)"/>
</g>
</svg>
