<?xml version="1.0" encoding="UTF-8"?>
<svg xmlns="http://www.w3.org/2000/svg" xmlns:xlink="http://www.w3.org/1999/xlink" width="24px" height="24px" viewBox="0 0 24 24" version="1.1">
<g id="surface1">
<path style=" stroke:none;fill-rule:nonzero;fill:rgb(25.490196%,25.490196%,43.137255%);fill-opacity:1;" d="M 21 18.140625 L 21 18.648438 C 21 19.386719 20.75 20.097656 20.289062 20.671875 C 20.105469 20.886719 19.835938 21.011719 19.550781 21 L 16.871094 21 C 17.28125 20.285156 17.5 19.476562 17.5 18.648438 L 17.5 18.140625 C 17.503906 16.746094 16.996094 15.402344 16.070312 14.359375 C 16.136719 14.335938 16.199219 14.304688 16.261719 14.269531 C 16.738281 14.003906 17.300781 13.929688 17.828125 14.058594 C 19.695312 14.53125 21.003906 16.214844 21 18.140625 Z M 14 4 C 13.6875 3.996094 13.375 4.03125 13.070312 4.101562 C 14.300781 5.234375 15 6.828125 15 8.5 C 15 10.171875 14.300781 11.765625 13.070312 12.898438 C 13.375 12.96875 13.6875 13.003906 14 13 C 16.484375 13 18.5 10.984375 18.5 8.5 C 18.5 6.015625 16.484375 4 14 4 Z M 9 4 C 6.515625 4 4.5 6.015625 4.5 8.5 C 4.5 10.984375 6.515625 13 9 13 C 11.484375 13 13.5 10.984375 13.5 8.5 C 13.496094 6.015625 11.484375 4.003906 9 4 Z M 12.828125 14.058594 C 12.65625 14.019531 12.476562 14 12.300781 14 C 11.9375 13.996094 11.578125 14.089844 11.261719 14.269531 C 9.855469 15.027344 8.167969 15.03125 6.761719 14.28125 C 6.433594 14.097656 6.0625 14.003906 5.691406 14 C 5.535156 14 5.382812 14.019531 5.230469 14.050781 C 3.332031 14.492188 1.988281 16.191406 2 18.140625 L 2 18.648438 C 2 19.386719 2.25 20.097656 2.710938 20.671875 C 2.894531 20.886719 3.164062 21.011719 3.449219 21 L 14.550781 21 C 14.835938 21.011719 15.105469 20.886719 15.289062 20.671875 C 15.75 20.097656 16 19.386719 16 18.648438 L 16 18.140625 C 16.003906 16.214844 14.695312 14.53125 12.828125 14.058594 Z M 12.828125 14.058594 "/>
</g>
</svg>
