<?xml version="1.0" encoding="UTF-8"?>
<svg xmlns="http://www.w3.org/2000/svg" xmlns:xlink="http://www.w3.org/1999/xlink" width="30px" height="30px" viewBox="0 0 30 30" version="1.1">
<g id="surface1">
<path style="fill:none;stroke-width:1.5;stroke-linecap:round;stroke-linejoin:round;stroke:rgb(7.45098%,5.882353%,14.901961%);stroke-opacity:1;stroke-miterlimit:4;" d="M 9.15625 20.771875 L 9.15625 17.70625 C 9.15625 16.925 9.79375 16.290625 10.58125 16.284375 L 13.465625 16.284375 C 14.259375 16.284375 14.9 16.921875 14.9 17.70625 L 14.9 20.78125 C 14.9 21.44375 15.434375 21.984375 16.103125 22 L 18.028125 22 C 19.94375 22 21.5 20.459375 21.5 18.5625 L 21.5 9.8375 C 21.490625 9.090625 21.134375 8.390625 20.5375 7.934375 L 13.95625 2.684375 C 12.80625 1.771875 11.165625 1.771875 10.0125 2.684375 L 3.4625 7.94375 C 2.8625 8.396875 2.50625 9.1 2.5 9.846875 L 2.5 18.5625 C 2.5 20.459375 4.05625 22 5.971875 22 L 7.896875 22 C 8.58125 22 9.1375 21.45 9.1375 20.771875 " transform="matrix(1.25,0,0,1.25,0,0)"/>
</g>
</svg>
