<?xml version="1.0" encoding="UTF-8"?>
<svg xmlns="http://www.w3.org/2000/svg" xmlns:xlink="http://www.w3.org/1999/xlink" width="40px" height="40px" viewBox="0 0 40 40" version="1.1">
<g id="surface1">
<path style=" stroke:none;fill-rule:nonzero;fill:rgb(0%,0%,0%);fill-opacity:1;" d="M 31.625 11.445312 C 31.1875 7.640625 27.9375 4.671875 24.007812 4.671875 C 23.242188 4.671875 22.484375 4.789062 21.75 5.007812 C 19.984375 2.484375 17.054688 0.921875 13.929688 0.921875 C 8.671875 0.929688 4.390625 5.203125 4.390625 10.453125 C 4.390625 11.179688 4.476562 11.898438 4.632812 12.59375 C 2.328125 14.007812 0.859375 16.546875 0.859375 19.304688 C 0.859375 23.648438 4.398438 27.179688 8.742188 27.179688 L 11.625 27.179688 L 11.625 35.140625 C 10.773438 35.632812 8.945312 36.351562 6.507812 35.445312 C 5.679688 35.140625 4.765625 35.5625 4.453125 36.382812 C 4.148438 37.210938 4.570312 38.125 5.390625 38.4375 C 6.625 38.898438 7.765625 39.070312 8.789062 39.070312 C 12.078125 39.070312 14.15625 37.257812 14.273438 37.15625 C 14.609375 36.851562 14.804688 36.421875 14.804688 35.96875 L 14.804688 21.203125 L 25.460938 18.828125 L 25.460938 32.15625 C 24.671875 32.75 22.9375 33.804688 20.71875 33.6875 C 19.84375 33.648438 19.09375 34.320312 19.046875 35.203125 C 19.007812 36.085938 19.679688 36.828125 20.5625 36.875 C 25.09375 37.09375 28.054688 34.15625 28.179688 34.023438 C 28.476562 33.726562 28.648438 33.320312 28.648438 32.898438 L 28.648438 27.179688 L 31.257812 27.179688 C 35.609375 27.179688 39.140625 23.648438 39.140625 19.304688 C 39.140625 15.09375 35.804688 11.640625 31.625 11.445312 Z M 31.257812 23.992188 L 28.648438 23.992188 L 28.648438 16.835938 C 28.648438 16.351562 28.242188 15.09375 26.703125 15.28125 L 12.867188 18.367188 C 12.140625 18.53125 11.617188 19.179688 11.617188 19.921875 L 11.617188 23.992188 L 8.734375 23.992188 C 6.148438 23.992188 4.039062 21.890625 4.039062 19.3125 C 4.039062 17.367188 5.273438 15.601562 7.109375 14.929688 C 7.515625 14.78125 8.484375 14.0625 8.039062 12.835938 C 7.757812 12.0625 7.570312 11.28125 7.570312 10.46875 C 7.570312 6.976562 10.421875 4.132812 13.921875 4.132812 C 16.375 4.132812 18.507812 5.539062 19.640625 7.726562 C 20.171875 8.765625 21.242188 8.765625 21.84375 8.429688 C 22.507812 8.0625 23.234375 7.875 24 7.875 C 26.46875 7.875 28.476562 9.9375 28.476562 12.335938 C 28.476562 13.351562 28.414062 13.445312 28.640625 13.835938 C 29.296875 14.984375 31.25 14.632812 31.25 14.632812 C 33.835938 14.632812 35.945312 16.734375 35.945312 19.3125 C 35.953125 21.890625 33.84375 23.992188 31.257812 23.992188 Z M 31.257812 23.992188 "/>
</g>
</svg>
