<?xml version="1.0" encoding="UTF-8"?>
<svg xmlns="http://www.w3.org/2000/svg" xmlns:xlink="http://www.w3.org/1999/xlink" width="30px" height="30px" viewBox="0 0 30 30" version="1.1">
<g id="surface1">
<path style=" stroke:none;fill-rule:nonzero;fill:rgb(0%,0%,0%);fill-opacity:1;" d="M 12.1875 25.3125 L 9.375 25.3125 C 8.855469 25.3125 8.4375 24.894531 8.4375 24.375 L 8.4375 5.625 C 8.4375 5.105469 8.855469 4.6875 9.375 4.6875 L 12.1875 4.6875 C 12.707031 4.6875 13.125 5.105469 13.125 5.625 L 13.125 24.375 C 13.125 24.894531 12.707031 25.3125 12.1875 25.3125 Z M 12.1875 25.3125 "/>
<path style=" stroke:none;fill-rule:nonzero;fill:rgb(0%,0%,0%);fill-opacity:1;" d="M 20.625 25.3125 L 17.8125 25.3125 C 17.292969 25.3125 16.875 24.894531 16.875 24.375 L 16.875 5.625 C 16.875 5.105469 17.292969 4.6875 17.8125 4.6875 L 20.625 4.6875 C 21.144531 4.6875 21.5625 5.105469 21.5625 5.625 L 21.5625 24.375 C 21.5625 24.894531 21.144531 25.3125 20.625 25.3125 Z M 20.625 25.3125 "/>
</g>
</svg>
