<?xml version="1.0" encoding="UTF-8"?>
<svg xmlns="http://www.w3.org/2000/svg" xmlns:xlink="http://www.w3.org/1999/xlink" width="30px" height="30px" viewBox="0 0 30 30" version="1.1">
<g id="surface1">
<path style=" stroke:none;fill-rule:nonzero;fill:rgb(0%,0%,0%);fill-opacity:1;" d="M 6.5625 3.75 C 7.082031 3.75 7.5 4.167969 7.5 4.6875 L 7.5 12.679688 L 21.140625 4.519531 C 21.78125 4.128906 22.582031 4.117188 23.234375 4.492188 C 23.9375 4.890625 24.375 5.664062 24.375 6.503906 L 24.375 23.496094 C 24.375 24.339844 23.9375 25.109375 23.234375 25.507812 C 22.582031 25.882812 21.78125 25.871094 21.140625 25.480469 L 7.5 17.320312 L 7.5 25.3125 C 7.5 25.832031 7.082031 26.25 6.5625 26.25 C 6.042969 26.25 5.625 25.832031 5.625 25.3125 L 5.625 4.6875 C 5.625 4.167969 6.042969 3.75 6.5625 3.75 Z M 6.5625 3.75 "/>
</g>
</svg>
