<?xml version="1.0" encoding="UTF-8"?>
<svg xmlns="http://www.w3.org/2000/svg" xmlns:xlink="http://www.w3.org/1999/xlink" width="30px" height="30px" viewBox="0 0 30 30" version="1.1">
<g id="surface1">
<path style=" stroke:none;fill-rule:nonzero;fill:rgb(0%,0%,0%);fill-opacity:1;" d="M 23.4375 3.75 C 22.917969 3.75 22.5 4.167969 22.5 4.6875 L 22.5 12.679688 L 8.859375 4.519531 C 8.21875 4.128906 7.417969 4.117188 6.765625 4.492188 C 6.0625 4.890625 5.625 5.660156 5.625 6.503906 L 5.625 23.496094 C 5.625 24.339844 6.0625 25.109375 6.765625 25.507812 C 7.417969 25.882812 8.21875 25.871094 8.859375 25.480469 L 22.5 17.320312 L 22.5 25.3125 C 22.5 25.832031 22.917969 26.25 23.4375 26.25 C 23.957031 26.25 24.375 25.832031 24.375 25.3125 L 24.375 4.6875 C 24.375 4.167969 23.957031 3.75 23.4375 3.75 Z M 23.4375 3.75 "/>
</g>
</svg>
