<?xml version="1.0" encoding="UTF-8"?>
<svg xmlns="http://www.w3.org/2000/svg" xmlns:xlink="http://www.w3.org/1999/xlink" width="30px" height="30px" viewBox="0 0 30 30" version="1.1">
<defs>
<filter id="alpha" filterUnits="objectBoundingBox" x="0%" y="0%" width="100%" height="100%">
  <feColorMatrix type="matrix" in="SourceGraphic" values="0 0 0 0 1 0 0 0 0 1 0 0 0 0 1 0 0 0 1 0"/>
</filter>
<mask id="mask0">
  <g filter="url(#alpha)">
<rect x="0" y="0" width="30" height="30" style="fill:rgb(0%,0%,0%);fill-opacity:0.4;stroke:none;"/>
  </g>
</mask>
<clipPath id="clip1">
  <rect x="0" y="0" width="30" height="30"/>
</clipPath>
<g id="surface5" clip-path="url(#clip1)">
<path style="fill:none;stroke-width:1.5;stroke-linecap:round;stroke-linejoin:round;stroke:rgb(7.45098%,5.882353%,14.901961%);stroke-opacity:1;stroke-miterlimit:4;" d="M 14.8125 11.890625 C 14.8125 13.34375 13.63125 14.525 12.175 14.525 C 10.71875 14.525 9.5375 13.34375 9.5375 11.890625 C 9.5375 10.434375 10.71875 9.253125 12.175 9.253125 C 13.63125 9.253125 14.8125 10.434375 14.8125 11.890625 Z M 14.8125 11.890625 " transform="matrix(1.25,0,0,1.25,0,0)"/>
</g>
</defs>
<g id="surface1">
<path style="fill:none;stroke-width:1.5;stroke-linecap:round;stroke-linejoin:round;stroke:rgb(7.45098%,5.882353%,14.901961%);stroke-opacity:1;stroke-miterlimit:4;" d="M 20.80625 7.625 L 20.184375 6.54375 C 19.65625 5.628125 18.490625 5.315625 17.575 5.8375 C 17.140625 6.096875 16.61875 6.16875 16.13125 6.040625 C 15.640625 5.9125 15.221875 5.596875 14.965625 5.1625 C 14.803125 4.884375 14.7125 4.56875 14.709375 4.246875 C 14.725 3.728125 14.53125 3.228125 14.16875 2.85625 C 13.809375 2.4875 13.315625 2.278125 12.796875 2.278125 L 11.54375 2.278125 C 11.0375 2.278125 10.55 2.48125 10.19375 2.8375 C 9.8375 3.196875 9.6375 3.684375 9.640625 4.190625 C 9.625 5.2375 8.771875 6.078125 7.728125 6.078125 C 7.403125 6.071875 7.0875 5.984375 6.8125 5.821875 C 5.896875 5.296875 4.728125 5.6125 4.203125 6.525 L 3.534375 7.625 C 3.009375 8.5375 3.31875 9.703125 4.23125 10.23125 C 4.821875 10.575 5.1875 11.20625 5.1875 11.890625 C 5.1875 12.571875 4.821875 13.203125 4.23125 13.546875 C 3.321875 14.071875 3.009375 15.234375 3.534375 16.146875 L 4.165625 17.234375 C 4.4125 17.68125 4.828125 18.009375 5.315625 18.146875 C 5.80625 18.2875 6.33125 18.225 6.775 17.975 C 7.2125 17.721875 7.73125 17.653125 8.21875 17.78125 C 8.70625 17.9125 9.121875 18.234375 9.375 18.671875 C 9.5375 18.95 9.628125 19.265625 9.63125 19.5875 C 9.63125 20.64375 10.4875 21.5 11.54375 21.5 L 12.796875 21.5 C 13.85 21.5 14.70625 20.65 14.709375 19.596875 C 14.709375 19.0875 14.909375 18.6 15.26875 18.240625 C 15.628125 17.88125 16.115625 17.68125 16.625 17.684375 C 16.94375 17.690625 17.259375 17.78125 17.5375 17.940625 C 18.453125 18.465625 19.61875 18.153125 20.146875 17.24375 L 20.80625 16.146875 C 21.0625 15.70625 21.13125 15.1875 21 14.696875 C 20.871875 14.20625 20.55 13.790625 20.1125 13.5375 C 19.671875 13.284375 19.35 12.865625 19.221875 12.378125 C 19.090625 11.8875 19.159375 11.365625 19.415625 10.928125 C 19.58125 10.6375 19.821875 10.396875 20.1125 10.23125 C 21.015625 9.703125 21.325 8.54375 20.80625 7.63125 Z M 20.80625 7.625 " transform="matrix(1.25,0,0,1.25,0,0)"/>
<use xlink:href="#surface5" mask="url(#mask0)"/>
</g>
</svg>
