<?xml version="1.0" encoding="UTF-8"?>
<svg xmlns="http://www.w3.org/2000/svg" xmlns:xlink="http://www.w3.org/1999/xlink" width="30px" height="30px" viewBox="0 0 30 30" version="1.1">
<g id="surface1">
<path style="fill:none;stroke-width:1.5;stroke-linecap:round;stroke-linejoin:miter;stroke:rgb(21.176471%,21.960784%,32.54902%);stroke-opacity:1;stroke-miterlimit:4;" d="M 18.48125 18.5375 L 21 18.5375 M 4.68125 12 L 3 12.04375 M 4.68125 12 C 4.68125 13.325 5.753125 14.4 7.08125 14.4 C 8.40625 14.4 9.48125 13.325 9.48125 12 C 9.48125 10.675 8.40625 9.6 7.08125 9.6 C 5.753125 9.6 4.68125 10.675 4.68125 12 Z M 10.16875 12.04375 L 21 12.04375 M 12.8 5.55 L 3 5.55 M 21 5.55 L 18.48125 5.55 M 3 18.5375 L 12.8 18.5375 M 17.88125 18.6 C 17.88125 19.925 16.80625 21 15.48125 21 C 14.153125 21 13.08125 19.925 13.08125 18.6 C 13.08125 17.275 14.153125 16.2 15.48125 16.2 C 16.80625 16.2 17.88125 17.275 17.88125 18.6 Z M 17.88125 5.4 C 17.88125 6.725 16.80625 7.8 15.48125 7.8 C 14.153125 7.8 13.08125 6.725 13.08125 5.4 C 13.08125 4.075 14.153125 3 15.48125 3 C 16.80625 3 17.88125 4.075 17.88125 5.4 Z M 17.88125 5.4 " transform="matrix(1.25,0,0,1.25,0,0)"/>
</g>
</svg>
