<?xml version="1.0" encoding="UTF-8"?>
<svg xmlns="http://www.w3.org/2000/svg" xmlns:xlink="http://www.w3.org/1999/xlink" width="24px" height="24px" viewBox="0 0 24 24" version="1.1">
<g id="surface1">
<path style=" stroke:none;fill-rule:nonzero;fill:rgb(0%,0%,0%);fill-opacity:1;" d="M 23.945312 9.214844 C 23.816406 8.820312 23.476562 8.53125 23.066406 8.472656 L 16.09375 7.457031 L 12.976562 1.140625 C 12.792969 0.769531 12.414062 0.535156 12 0.535156 C 11.585938 0.535156 11.207031 0.769531 11.023438 1.140625 L 7.90625 7.457031 L 0.933594 8.472656 C 0.523438 8.53125 0.183594 8.820312 0.0546875 9.214844 C -0.0742188 9.609375 0.03125 10.042969 0.328125 10.332031 L 5.375 15.25 L 4.183594 22.191406 C 4.113281 22.601562 4.28125 23.015625 4.617188 23.257812 C 4.804688 23.394531 5.03125 23.464844 5.257812 23.464844 C 5.429688 23.464844 5.605469 23.425781 5.765625 23.339844 L 12 20.0625 L 18.234375 23.339844 C 18.394531 23.425781 18.570312 23.464844 18.746094 23.464844 C 19.347656 23.464844 19.835938 22.976562 19.835938 22.375 C 19.835938 22.292969 19.824219 22.210938 19.808594 22.132812 L 18.625 15.25 L 23.671875 10.332031 C 23.96875 10.042969 24.074219 9.609375 23.945312 9.214844 Z M 23.945312 9.214844 "/>
</g>
</svg>
