<?xml version="1.0" encoding="UTF-8"?>
<svg xmlns="http://www.w3.org/2000/svg" xmlns:xlink="http://www.w3.org/1999/xlink" width="30px" height="30px" viewBox="0 0 30 30" version="1.1">
<g id="surface1">
<path style="fill:none;stroke-width:1.5;stroke-linecap:round;stroke-linejoin:round;stroke:rgb(7.45098%,5.882353%,14.901961%);stroke-opacity:1;stroke-miterlimit:4;" d="M 13.103125 4.178125 L 14.93125 7.828125 C 15.109375 8.1875 15.45625 8.434375 15.85625 8.490625 L 19.94375 9.08125 C 20.95625 9.225 21.35625 10.45 20.625 11.153125 L 17.66875 13.99375 C 17.38125 14.271875 17.246875 14.671875 17.315625 15.06875 L 18.0125 19.078125 C 18.184375 20.06875 17.13125 20.828125 16.228125 20.35625 L 12.571875 18.4625 C 12.215625 18.278125 11.7875 18.278125 11.428125 18.4625 L 7.771875 20.35625 C 6.86875 20.828125 5.815625 20.06875 5.9875 19.078125 L 6.684375 15.06875 C 6.753125 14.671875 6.621875 14.271875 6.33125 13.99375 L 3.375 11.153125 C 2.64375 10.45 3.04375 9.225 4.053125 9.08125 L 8.14375 8.490625 C 8.54375 8.434375 8.890625 8.1875 9.06875 7.828125 L 10.896875 4.178125 C 11.346875 3.275 12.653125 3.275 13.103125 4.178125 Z M 13.103125 4.178125 " transform="matrix(1.25,0,0,1.25,0,0)"/>
</g>
</svg>
